# xmcd
#
# Track frame offsets:
#	150
#	24470
#	57215
#	79760
#	96450
#	115232
#	145500
#	163115
#
# Disc length: 2540 seconds
#
# Revision: 1
# Processed by: cddbd v1.5.2PL0 Copyright (c) Steve Scherf et al.
# Submitted via: audiograbber 1.83.01
#
DISCID=6209ea08
DTITLE=Roberta Flack - Quiet Fire
DYEAR=1971
DGENRE=Soul Oldies
TTITLE0=Go Up Moses
TTITLE1=Bridge Over Troubled Water
TTITLE2=Sunday And Sister Jones
TTITLE3=See You Then
TTITLE4=Will You Still Love Me Tomorrow
TTITLE5=To Love Somebody
TTITLE6=Let Them Talk
TTITLE7=Sweet Bitter Love
EXTD=MARO\n
EXTT0=
EXTT1=
EXTT2=
EXTT3=
EXTT4=
EXTT5=
EXTT6=
EXTT7=
PLAYORDER=
